<?xml version="1.0" encoding="UTF-8"?>
<svg width="512px" height="512px" viewBox="0 0 512 512" version="1.1" xmlns="http://www.w3.org/2000/svg" xmlns:xlink="http://www.w3.org/1999/xlink">
    <title>Ganz Digital</title>
    <g id="icon" stroke="none" stroke-width="1" fill="none" fill-rule="evenodd">
        <path d="M327.033921,326.080081 L265.433615,263.205625 L442.877006,263.481292 L443.147087,444.59495 L393.815441,394.24292 C358.58945,431.109219 309.392844,454 254.958927,454 C147.838369,454 61,365.35238 61,256 C61,146.64762 147.838369,58 254.958927,58 C345.607682,58 421.732216,121.481199 443,207.270752 L342.211921,207.062054 C325.276932,175.663776 292.551666,154.389452 254.958927,154.389452 C199.986308,154.389452 155.422195,199.882044 155.422195,256 C155.422195,312.117956 199.986308,357.610548 254.958927,357.610548 C283.316421,357.610548 308.904224,345.505025 327.03392,326.08008 Z" id="Combined-Shape-Copy-31" fill="#FFB330"></path>
    </g>
</svg>